<svg width="575" height="382" viewBox="0 0 575 382" fill="none" xmlns="http://www.w3.org/2000/svg">
<path d="M549.23 0H25C11.1929 0 0 11.1929 0 25V356.865C0 370.672 11.1929 381.865 25 381.865H549.23C563.037 381.865 574.23 370.672 574.23 356.865V25C574.23 11.1929 563.037 0 549.23 0Z" fill="url(#paint0_linear_20_5)"/>
<path opacity="0.1" d="M518.493 14.303H57.03C54.2686 14.303 52.03 16.5416 52.03 19.303V363.059C52.03 365.82 54.2686 368.059 57.03 368.059H518.493C521.254 368.059 523.493 365.82 523.493 363.059V19.303C523.493 16.5416 521.254 14.303 518.493 14.303Z" fill="#2A2A2A"/>
<path d="M547.03 17.303H27.03C22.6118 17.303 19.03 20.8847 19.03 25.303V355.303C19.03 359.721 22.6118 363.303 27.03 363.303H547.03C551.448 363.303 555.03 359.721 555.03 355.303V25.303C555.03 20.8847 551.448 17.303 547.03 17.303Z" fill="#E8EAF6"/>
<mask id="mask0_20_5" style="mask-type:luminance" maskUnits="userSpaceOnUse" x="19" y="17" width="537" height="347">
<path d="M547.03 17.303H27.03C22.6118 17.303 19.03 20.8847 19.03 25.303V355.303C19.03 359.721 22.6118 363.303 27.03 363.303H547.03C551.448 363.303 555.03 359.721 555.03 355.303V25.303C555.03 20.8847 551.448 17.303 547.03 17.303Z" fill="white"/>
</mask>
<g mask="url(#mask0_20_5)">
<path fill-rule="evenodd" clip-rule="evenodd" d="M15.5 17.5H562.5V76.5H15.5V17.5Z" fill="#5267DF"/>
<path opacity="0.245" d="M57.5 63.5C66.3366 63.5 73.5 56.3366 73.5 47.5C73.5 38.6634 66.3366 31.5 57.5 31.5C48.6634 31.5 41.5 38.6634 41.5 47.5C41.5 56.3366 48.6634 63.5 57.5 63.5Z" fill="white"/>
<path opacity="0.104" d="M518.5 63.5C527.337 63.5 534.5 56.3366 534.5 47.5C534.5 38.6634 527.337 31.5 518.5 31.5C509.663 31.5 502.5 38.6634 502.5 47.5C502.5 56.3366 509.663 63.5 518.5 63.5Z" fill="white"/>
<path opacity="0.75" d="M205.5 37.5H91.5C89.8431 37.5 88.5 38.8431 88.5 40.5C88.5 42.1569 89.8431 43.5 91.5 43.5H205.5C207.157 43.5 208.5 42.1569 208.5 40.5C208.5 38.8431 207.157 37.5 205.5 37.5Z" fill="white"/>
<path opacity="0.25" d="M149.5 51.5H91.5C89.8431 51.5 88.5 52.8431 88.5 54.5C88.5 56.1569 89.8431 57.5 91.5 57.5H149.5C151.157 57.5 152.5 56.1569 152.5 54.5C152.5 52.8431 151.157 51.5 149.5 51.5Z" fill="white"/>
</g>
<mask id="mask1_20_5" style="mask-type:luminance" maskUnits="userSpaceOnUse" x="19" y="17" width="537" height="347">
<path d="M547.03 17.303H27.03C22.6118 17.303 19.03 20.8847 19.03 25.303V355.303C19.03 359.721 22.6118 363.303 27.03 363.303H547.03C551.448 363.303 555.03 359.721 555.03 355.303V25.303C555.03 20.8847 551.448 17.303 547.03 17.303Z" fill="white"/>
</mask>
<g mask="url(#mask1_20_5)">
<path d="M329.03 110.303H84.03C79.6118 110.303 76.03 113.885 76.03 118.303V418.303C76.03 422.721 79.6118 426.303 84.03 426.303H329.03C333.448 426.303 337.03 422.721 337.03 418.303V118.303C337.03 113.885 333.448 110.303 329.03 110.303Z" fill="white"/>
<path d="M491.03 110.303H379.03C374.612 110.303 371.03 113.885 371.03 118.303V418.303C371.03 422.721 374.612 426.303 379.03 426.303H491.03C495.448 426.303 499.03 422.721 499.03 418.303V118.303C499.03 113.885 495.448 110.303 491.03 110.303Z" fill="white"/>
<path opacity="0.5" d="M271.5 148.5H157.5C155.843 148.5 154.5 149.843 154.5 151.5C154.5 153.157 155.843 154.5 157.5 154.5H271.5C273.157 154.5 274.5 153.157 274.5 151.5C274.5 149.843 273.157 148.5 271.5 148.5Z" fill="#242A45"/>
</g>
<path d="M123.5 174.5C132.337 174.5 139.5 167.337 139.5 158.5C139.5 149.663 132.337 142.5 123.5 142.5C114.663 142.5 107.5 149.663 107.5 158.5C107.5 167.337 114.663 174.5 123.5 174.5Z" fill="#F98E5D"/>
<path opacity="0.25" d="M476.5 132.5H394.5C392.843 132.5 391.5 133.843 391.5 135.5C391.5 137.157 392.843 138.5 394.5 138.5H476.5C478.157 138.5 479.5 137.157 479.5 135.5C479.5 133.843 478.157 132.5 476.5 132.5Z" fill="#242A45"/>
<path opacity="0.25" d="M476.5 152.5H394.5C392.843 152.5 391.5 153.843 391.5 155.5C391.5 157.157 392.843 158.5 394.5 158.5H476.5C478.157 158.5 479.5 157.157 479.5 155.5C479.5 153.843 478.157 152.5 476.5 152.5Z" fill="#242A45"/>
<path opacity="0.25" d="M476.5 172.5H394.5C392.843 172.5 391.5 173.843 391.5 175.5C391.5 177.157 392.843 178.5 394.5 178.5H476.5C478.157 178.5 479.5 177.157 479.5 175.5C479.5 173.843 478.157 172.5 476.5 172.5Z" fill="#242A45"/>
<path opacity="0.25" d="M476.5 192.5H394.5C392.843 192.5 391.5 193.843 391.5 195.5C391.5 197.157 392.843 198.5 394.5 198.5H476.5C478.157 198.5 479.5 197.157 479.5 195.5C479.5 193.843 478.157 192.5 476.5 192.5Z" fill="#242A45"/>
<path opacity="0.25" d="M476.5 226.5H394.5C392.843 226.5 391.5 227.843 391.5 229.5C391.5 231.157 392.843 232.5 394.5 232.5H476.5C478.157 232.5 479.5 231.157 479.5 229.5C479.5 227.843 478.157 226.5 476.5 226.5Z" fill="#242A45"/>
<path opacity="0.25" d="M476.5 246.5H394.5C392.843 246.5 391.5 247.843 391.5 249.5C391.5 251.157 392.843 252.5 394.5 252.5H476.5C478.157 252.5 479.5 251.157 479.5 249.5C479.5 247.843 478.157 246.5 476.5 246.5Z" fill="#242A45"/>
<path opacity="0.25" d="M476.5 266.5H394.5C392.843 266.5 391.5 267.843 391.5 269.5C391.5 271.157 392.843 272.5 394.5 272.5H476.5C478.157 272.5 479.5 271.157 479.5 269.5C479.5 267.843 478.157 266.5 476.5 266.5Z" fill="#242A45"/>
<path opacity="0.25" d="M215.5 162.5H157.5C155.843 162.5 154.5 163.843 154.5 165.5C154.5 167.157 155.843 168.5 157.5 168.5H215.5C217.157 168.5 218.5 167.157 218.5 165.5C218.5 163.843 217.157 162.5 215.5 162.5Z" fill="#242A45"/>
<path d="M123.5 230.5C132.337 230.5 139.5 223.337 139.5 214.5C139.5 205.663 132.337 198.5 123.5 198.5C114.663 198.5 107.5 205.663 107.5 214.5C107.5 223.337 114.663 230.5 123.5 230.5Z" fill="#6AC6D6"/>
<path opacity="0.5" d="M271.5 204.5H157.5C155.843 204.5 154.5 205.843 154.5 207.5C154.5 209.157 155.843 210.5 157.5 210.5H271.5C273.157 210.5 274.5 209.157 274.5 207.5C274.5 205.843 273.157 204.5 271.5 204.5Z" fill="#242A45"/>
<path opacity="0.25" d="M215.5 218.5H157.5C155.843 218.5 154.5 219.843 154.5 221.5C154.5 223.157 155.843 224.5 157.5 224.5H215.5C217.157 224.5 218.5 223.157 218.5 221.5C218.5 219.843 217.157 218.5 215.5 218.5Z" fill="#242A45"/>
<path d="M123.5 286.5C132.337 286.5 139.5 279.337 139.5 270.5C139.5 261.663 132.337 254.5 123.5 254.5C114.663 254.5 107.5 261.663 107.5 270.5C107.5 279.337 114.663 286.5 123.5 286.5Z" fill="#A47ED4"/>
<path opacity="0.5" d="M271.5 260.5H157.5C155.843 260.5 154.5 261.843 154.5 263.5C154.5 265.157 155.843 266.5 157.5 266.5H271.5C273.157 266.5 274.5 265.157 274.5 263.5C274.5 261.843 273.157 260.5 271.5 260.5Z" fill="#242A45"/>
<path opacity="0.25" d="M215.5 274.5H157.5C155.843 274.5 154.5 275.843 154.5 277.5C154.5 279.157 155.843 280.5 157.5 280.5H215.5C217.157 280.5 218.5 279.157 218.5 277.5C218.5 275.843 217.157 274.5 215.5 274.5Z" fill="#242A45"/>
<path d="M123.5 342.5C132.337 342.5 139.5 335.337 139.5 326.5C139.5 317.663 132.337 310.5 123.5 310.5C114.663 310.5 107.5 317.663 107.5 326.5C107.5 335.337 114.663 342.5 123.5 342.5Z" fill="#EC7878"/>
<path opacity="0.5" d="M271.5 316.5H157.5C155.843 316.5 154.5 317.843 154.5 319.5C154.5 321.157 155.843 322.5 157.5 322.5H271.5C273.157 322.5 274.5 321.157 274.5 319.5C274.5 317.843 273.157 316.5 271.5 316.5Z" fill="#242A45"/>
<path opacity="0.25" d="M215.5 330.5H157.5C155.843 330.5 154.5 331.843 154.5 333.5C154.5 335.157 155.843 336.5 157.5 336.5H215.5C217.157 336.5 218.5 335.157 218.5 333.5C218.5 331.843 217.157 330.5 215.5 330.5Z" fill="#242A45"/>
<defs>
<linearGradient id="paint0_linear_20_5" x1="56856.2" y1="27370.2" x2="10934.9" y2="-3167.35" gradientUnits="userSpaceOnUse">
<stop stop-color="#151515"/>
<stop offset="1" stop-color="#3D3D3D"/>
</linearGradient>
</defs>
</svg>
